<?xml version="1.0" encoding="UTF-8"?>
<svg width="662.67mm" height="136.88mm" version="1.1" viewBox="0 0 662.67 136.88" xmlns="http://www.w3.org/2000/svg" xmlns:cc="http://creativecommons.org/ns#" xmlns:dc="http://purl.org/dc/elements/1.1/" xmlns:rdf="http://www.w3.org/1999/02/22-rdf-syntax-ns#">
 <metadata>
  <rdf:RDF>
   <cc:Work rdf:about="">
    <dc:format>image/svg+xml</dc:format>
    <dc:type rdf:resource="http://purl.org/dc/dcmitype/StillImage"/>
   </cc:Work>
  </rdf:RDF>
 </metadata>
 <g transform="translate(-268.67 -246.56)">
  <g stroke-width="4.444" aria-label="Pollution">
   <path d="m291.07 310.02v-36.085h16.354c13.688 0 27.197 2.6664 27.197 17.598s-13.332 18.487-27.908 18.487zm-22.398 70.926h22.398v-52.084h17.243c26.486 0 48.884-9.599 48.884-37.33 0-26.308-18.665-36.441-47.462-36.441h-41.063z"/>
   <path d="m387.27 337.93c0-13.332 7.8214-27.375 24.709-27.375s24.709 14.043 24.709 27.375-7.8214 27.731-24.709 27.731-24.709-14.399-24.709-27.731zm-21.687 0c0 26.842 20.62 45.507 46.395 45.507s46.395-18.665 46.395-45.507c0-27.02-20.62-44.796-46.395-44.796s-46.395 17.776-46.395 44.796z"/>
   <path d="m473.89 380.95h21.331v-134.39h-21.331z"/>
   <path d="m516.06 380.95h21.331v-134.39h-21.331z"/>
   <path d="m635.73 295.62h-21.331v46.929c0 11.377-6.3994 23.109-19.909 23.109-13.688 0-15.998-12.621-15.998-22.753v-47.284h-21.331v53.328c0 17.598 9.2435 34.485 31.464 34.485 12.799 0 22.753-7.6437 26.486-16.176h0.35552v13.688h20.265z"/>
   <path d="m658.52 312.69v39.818c0 16.354 5.155 30.219 27.731 30.219 4.7995 0 10.488-0.8888 14.221-2.3109l-0.71104-16.709c-2.6664 1.2443-6.2216 1.7776-9.0658 1.7776-9.4213 0-11.199-5.5106-11.199-13.154v-39.64h21.331v-17.065h-21.331v-24.709h-20.976v24.709h-14.932v17.065z"/>
   <path d="m704.96 266.65c0 6.9326 5.6883 12.799 13.51 12.799s13.865-5.5106 13.865-12.799-6.0438-12.799-13.865-12.799-13.51 5.8661-13.51 12.799zm3.0219 114.3h21.331v-85.325h-21.331z"/>
   <path d="m766.51 337.93c0-13.332 7.8214-27.375 24.709-27.375s24.709 14.043 24.709 27.375-7.8214 27.731-24.709 27.731-24.709-14.399-24.709-27.731zm-21.687 0c0 26.842 20.62 45.507 46.395 45.507s46.395-18.665 46.395-45.507c0-27.02-20.62-44.796-46.395-44.796s-46.395 17.776-46.395 44.796z"/>
   <path d="m852.76 380.95h21.331v-46.929c0-11.377 6.3994-23.109 19.909-23.109 13.688 0 15.998 12.621 15.998 22.753v47.284h21.331v-53.328c0-17.598-9.2435-34.485-31.464-34.485-12.799 0-22.753 7.6437-26.486 16.176h-0.35552v-13.688h-20.265z"/>
  </g>
 </g>
</svg>
